# xmcd CD database file
#
# Track frame offsets:
#	150
#	20108
#	46341
#	59929
#	82483
#	112978
#	132395
#	153477
#	179426
#	207074
#	227512
#	246744
#	270554
#	289002
#	314372
#
# Disc length: 4537 seconds
#
# Revision: 0
# Processed by: cddbd v1.5.2PL0 Copyright (c) Steve Scherf et al.
# Submitted via: CDex 1.70beta2
#
DISCID=e711b70f
DTITLE=Diana Krall - The very best of
DYEAR=2007
DGENRE=Jazz
TTITLE0='S wonderful
TTITLE1=Peel me a Grape
TTITLE2=Pick yourself up
TTITLE3=Frim Fram sauce
TTITLE4=You go to my head
TTITLE5=Let's fall in love
TTITLE6=The look of love
TTITLE7=East of the sun
TTITLE8=I've got you under my skin
TTITLE9=All or nothing at all
TTITLE10=Only the lonely
TTITLE11=Let's face the music and dance
TTITLE12=the heart of saturday night
TTITLE13=Little Girl Blue
TTITLE14=Fly me to the moon
EXTD=YEAR: 2007
EXTT0=
EXTT1=
EXTT2=
EXTT3=
EXTT4=
EXTT5=
EXTT6=
EXTT7=
EXTT8=
EXTT9=
EXTT10=
EXTT11=
EXTT12=
EXTT13=
EXTT14=
PLAYORDER=
